{"scale": 31, "profile": "HDV 720 24p", "fps": {"num": 24, "den": 1}, "sample_rate": 44100, "layers": [{"label": "", "number": 0, "id": "L0", "lock": false, "y": 0}, {"id": "L1", "label": "", "number": 1, "lock": false, "y": 0}, {"id": "L2", "label": "", "number": 2, "lock": false, "y": 0}, {"id": "L3", "label": "", "number": 3, "lock": false, "y": 0}, {"id": "L4", "label": "", "number": 4, "lock": false, "y": 0}], "version": {"openshot-qt": "2.3.4", "libopenshot": "0.1.7"}, "export_path": "", "settings": {}, "markers": [], "width": 1280, "duration": 500.8669396972656, "channel_layout": 3, "id": "T0", "channels": 2, "playhead_position": 0, "tick_pixels": 100, "height": 720, "effects": [], "files": [{"fps": {"den": 1001, "num": 60000}, "sample_rate": 44100, "path": "..\\2017-06-08_22-57-37.mp4", "acodec": "aac", "width": 1920, "audio_timebase": {"den": 44100, "num": 1}, "id": "0TBMHZ9FCL", "channels": 2, "top_field_first": true, "file_size": "11802256", "audio_stream_index": 1, "type": "FFmpegReader", "video_timebase": {"den": 60000, "num": 1}, "channel_layout": 3, "audio_bit_rate": 160080, "video_bit_rate": 2666950, "has_audio": true, "pixel_ratio": {"den": 1, "num": 1}, "video_length": "2122", "interlaced_frame": false, "has_single_image": false, "has_video": true, "duration": 35.38721084594727, "display_ratio": {"den": 9, "num": 16}, "height": 1080, "video_stream_index": 0, "pixel_format": 0, "vcodec": "h264", "media_type": "video"}, {"fps": {"den": 1001, "num": 60000}, "sample_rate": 44100, "path": "..\\2017-06-08_22-59-00.mp4", "acodec": "aac", "width": 1920, "audio_timebase": {"den": 44100, "num": 1}, "id": "4H1E7NYCAY", "channels": 2, "top_field_first": true, "file_size": "13681128", "audio_stream_index": 1, "type": "FFmpegReader", "video_timebase": {"den": 60000, "num": 1}, "channel_layout": 3, "audio_bit_rate": 160069, "video_bit_rate": 2667861, "has_audio": true, "pixel_ratio": {"den": 1, "num": 1}, "video_length": "2459", "interlaced_frame": false, "has_single_image": false, "has_video": true, "duration": 41.00643920898438, "display_ratio": {"den": 9, "num": 16}, "height": 1080, "video_stream_index": 0, "pixel_format": 0, "vcodec": "h264", "media_type": "video"}, {"fps": {"den": 1001, "num": 60000}, "sample_rate": 44100, "path": "..\\2017-06-08_23-02-22.mp4", "acodec": "aac", "width": 1920, "audio_timebase": {"den": 44100, "num": 1}, "id": "X3S300HJ2P", "channels": 2, "top_field_first": true, "file_size": "21441942", "audio_stream_index": 1, "type": "FFmpegReader", "video_timebase": {"den": 60000, "num": 1}, "channel_layout": 3, "audio_bit_rate": 160044, "video_bit_rate": 2669896, "has_audio": true, "pixel_ratio": {"den": 1, "num": 1}, "video_length": "3851", "interlaced_frame": false, "has_single_image": false, "has_video": true, "duration": 64.22639465332031, "display_ratio": {"den": 9, "num": 16}, "height": 1080, "video_stream_index": 0, "pixel_format": 0, "vcodec": "h264", "media_type": "video"}, {"fps": {"den": 1001, "num": 60000}, "sample_rate": 44100, "path": "..\\2017-06-08_23-04-13.mp4", "acodec": "aac", "width": 1920, "audio_timebase": {"den": 44100, "num": 1}, "id": "O7OS6ESWMU", "channels": 2, "top_field_first": true, "file_size": "14952130", "audio_stream_index": 1, "type": "FFmpegReader", "video_timebase": {"den": 60000, "num": 1}, "channel_layout": 3, "audio_bit_rate": 160063, "video_bit_rate": 2668295, "has_audio": true, "pixel_ratio": {"den": 1, "num": 1}, "video_length": "2687", "interlaced_frame": false, "has_single_image": false, "has_video": true, "duration": 44.81451416015625, "display_ratio": {"den": 9, "num": 16}, "height": 1080, "video_stream_index": 0, "pixel_format": 0, "vcodec": "h264", "media_type": "video"}, {"fps": {"den": 1001, "num": 60000}, "sample_rate": 44100, "path": "..\\2017-06-08_23-04-59.mp4", "acodec": "aac", "width": 1920, "audio_timebase": {"den": 44100, "num": 1}, "id": "8KFD00MZIJ", "channels": 2, "top_field_first": true, "file_size": "15219644", "audio_stream_index": 1, "type": "FFmpegReader", "video_timebase": {"den": 60000, "num": 1}, "channel_layout": 3, "audio_bit_rate": 160062, "video_bit_rate": 2668415, "has_audio": true, "pixel_ratio": {"den": 1, "num": 1}, "video_length": "2735", "interlaced_frame": false, "has_single_image": false, "has_video": true, "duration": 45.6039924621582, "display_ratio": {"den": 9, "num": 16}, "height": 1080, "video_stream_index": 0, "pixel_format": 0, "vcodec": "h264", "media_type": "video"}, {"fps": {"den": 1001, "num": 60000}, "sample_rate": 44100, "path": "..\\2017-06-08_23-07-36.mp4", "acodec": "aac", "width": 1920, "audio_timebase": {"den": 44100, "num": 1}, "id": "84EQYJQ3IM", "channels": 2, "top_field_first": true, "file_size": "8707675", "audio_stream_index": 1, "type": "FFmpegReader", "video_timebase": {"den": 60000, "num": 1}, "channel_layout": 3, "audio_bit_rate": 160109, "video_bit_rate": 2664629, "has_audio": true, "pixel_ratio": {"den": 1, "num": 1}, "video_length": "1567", "interlaced_frame": false, "has_single_image": false, "has_video": true, "duration": 26.12244987487793, "display_ratio": {"den": 9, "num": 16}, "height": 1080, "video_stream_index": 0, "pixel_format": 0, "vcodec": "h264", "media_type": "video"}, {"fps": {"den": 1001, "num": 60000}, "sample_rate": 44100, "path": "..\\2017-06-08_23-09-45.mp4", "acodec": "aac", "width": 1920, "audio_timebase": {"den": 44100, "num": 1}, "id": "VB8P9P09V8", "channels": 2, "top_field_first": true, "file_size": "15192151", "audio_stream_index": 1, "type": "FFmpegReader", "video_timebase": {"den": 60000, "num": 1}, "channel_layout": 3, "audio_bit_rate": 160062, "video_bit_rate": 2668449, "has_audio": true, "pixel_ratio": {"den": 1, "num": 1}, "video_length": "2730", "interlaced_frame": false, "has_single_image": false, "has_video": true, "duration": 45.53433227539062, "display_ratio": {"den": 9, "num": 16}, "height": 1080, "video_stream_index": 0, "pixel_format": 0, "vcodec": "h264", "media_type": "video"}, {"fps": {"den": 1, "num": 24}, "sample_rate": 44100, "path": "..\\..\\..\\..\\..\\Downloads\\Music\\Classical-Reverie.mp3", "acodec": "mp3", "width": 720, "audio_timebase": {"den": 14112000, "num": 1}, "id": "XKBNY5KSBX", "channels": 2, "top_field_first": true, "file_size": "9549952", "audio_stream_index": 0, "type": "FFmpegReader", "video_timebase": {"den": 24, "num": 1}, "channel_layout": 3, "audio_bit_rate": 320000, "video_bit_rate": 0, "has_audio": true, "pixel_ratio": {"den": 1, "num": 1}, "video_length": "5728", "interlaced_frame": false, "has_single_image": false, "has_video": false, "duration": 238.7069396972656, "display_ratio": {"den": 1, "num": 1}, "height": 480, "video_stream_index": -1, "pixel_format": -1, "vcodec": "", "media_type": "audio"}, {"fps": {"den": 1, "num": 30}, "sample_rate": 0, "path": "introImage.png", "acodec": "", "width": 1920, "audio_timebase": {"den": 1, "num": 1}, "id": "1NWQ9ZHCWA", "channels": 0, "top_field_first": true, "file_size": "8294400", "audio_stream_index": -1, "type": "QtImageReader", "video_timebase": {"den": 30, "num": 1}, "channel_layout": 4, "audio_bit_rate": 0, "video_bit_rate": 0, "has_audio": false, "pixel_ratio": {"den": 1, "num": 1}, "video_length": "2592000", "interlaced_frame": false, "has_single_image": true, "has_video": true, "duration": 86400.0, "display_ratio": {"den": 9, "num": 16}, "height": 1080, "video_stream_index": -1, "pixel_format": -1, "vcodec": "", "media_type": "image"}], "progress": [], "clips": [{"perspective_c2_x": {"Points": [{"co": {"Y": -1.0, "X": 1.0}, "interpolation": 2}]}, "waveform": false, "perspective_c1_x": {"Points": [{"co": {"Y": -1.0, "X": 1.0}, "interpolation": 2}]}, "perspective_c4_y": {"Points": [{"co": {"Y": -1.0, "X": 1.0}, "interpolation": 2}]}, "crop_height": {"Points": [{"co": {"Y": -1.0, "X": 1.0}, "interpolation": 2}]}, "id": "70GW3FNM8T", "end": 35.38721084594727, "shear_x": {"Points": [{"co": {"Y": 0.0, "X": 1.0}, "interpolation": 2}]}, "time": {"Points": [{"co": {"Y": 0.0, "X": 1.0}, "interpolation": 2}]}, "anchor": 0, "alpha": {"Points": [{"co": {"Y": 1.0, "X": 1.0}, "interpolation": 2}]}, "rotation": {"Points": [{"co": {"Y": 0.0, "X": 1.0}, "interpolation": 2}]}, "scale_x": {"Points": [{"co": {"Y": 1.0, "X": 1.0}, "interpolation": 2}]}, "has_audio": {"Points": [{"co": {"Y": -1.0, "X": 1.0}, "interpolation": 2}]}, "crop_y": {"Points": [{"co": {"Y": 0.0, "X": 1.0}, "interpolation": 2}]}, "location_y": {"Points": [{"co": {"Y": 0.0, "X": 1.0}, "interpolation": 2}]}, "has_video": {"Points": [{"co": {"Y": -1.0, "X": 1.0}, "interpolation": 2}]}, "channel_filter": {"Points": [{"co": {"Y": -1.0, "X": 1.0}, "interpolation": 2}]}, "duration": 35.38721084594727, "scale_y": {"Points": [{"co": {"Y": 1.0, "X": 1.0}, "interpolation": 2}]}, "crop_x": {"Points": [{"co": {"Y": 0.0, "X": 1.0}, "interpolation": 2}]}, "effects": [], "location_x": {"Points": [{"co": {"Y": 0.0, "X": 1.0}, "interpolation": 2}]}, "perspective_c1_y": {"Points": [{"co": {"Y": -1.0, "X": 1.0}, "interpolation": 2}]}, "perspective_c2_y": {"Points": [{"co": {"Y": -1.0, "X": 1.0}, "interpolation": 2}]}, "shear_y": {"Points": [{"co": {"Y": 0.0, "X": 1.0}, "interpolation": 2}]}, "perspective_c4_x": {"Points": [{"co": {"Y": -1.0, "X": 1.0}, "interpolation": 2}]}, "wave_color": {"blue": {"Points": [{"handle_right": {"Y": 0.0, "X": 0.5}, "handle_left": {"Y": 1.0, "X": 0.5}, "co": {"Y": 255.0, "X": 1.0}, "handle_type": 0, "interpolation": 0}]}, "alpha": {"Points": [{"handle_right": {"Y": 0.0, "X": 0.5}, "handle_left": {"Y": 1.0, "X": 0.5}, "co": {"Y": 255.0, "X": 1.0}, "handle_type": 0, "interpolation": 0}]}, "green": {"Points": [{"handle_right": {"Y": 0.0, "X": 0.5}, "handle_left": {"Y": 1.0, "X": 0.5}, "co": {"Y": 123.0, "X": 1.0}, "handle_type": 0, "interpolation": 0}]}, "red": {"Points": [{"handle_right": {"Y": 0.0, "X": 0.5}, "handle_left": {"Y": 1.0, "X": 0.5}, "co": {"Y": 0.0, "X": 1.0}, "handle_type": 0, "interpolation": 0}]}}, "scale": 1, "crop_width": {"Points": [{"co": {"Y": -1.0, "X": 1.0}, "interpolation": 2}]}, "reader": {"fps": {"den": 1001, "num": 60000}, "sample_rate": 44100, "path": "..\\2017-06-08_22-57-37.mp4", "acodec": "aac", "width": 1920, "audio_timebase": {"den": 44100, "num": 1}, "channels": 2, "video_length": "2122", "file_size": "11802256", "audio_stream_index": 1, "type": "FFmpegReader", "video_timebase": {"den": 60000, "num": 1}, "channel_layout": 3, "audio_bit_rate": 160080, "video_bit_rate": 2666950, "has_audio": true, "pixel_ratio": {"den": 1, "num": 1}, "interlaced_frame": false, "top_field_first": true, "has_single_image": false, "has_video": true, "duration": 35.38721084594727, "display_ratio": {"den": 9, "num": 16}, "height": 1080, "video_stream_index": 0, "pixel_format": 0, "vcodec": "h264"}, "perspective_c3_x": {"Points": [{"co": {"Y": -1.0, "X": 1.0}, "interpolation": 2}]}, "perspective_c3_y": {"Points": [{"co": {"Y": -1.0, "X": 1.0}, "interpolation": 2}]}, "volume": {"Points": [{"co": {"Y": 1.0, "X": 1.0}, "interpolation": 2}, {"handle_right": {"Y": 0.0, "X": 0.5}, "handle_left": {"Y": 1.0, "X": 0.5}, "co": {"Y": 0.1000000014901161, "X": 1.0}, "handle_type": 0, "interpolation": 0}, {"handle_right": {"Y": 0.0, "X": 0.5}, "handle_left": {"Y": 1.0, "X": 0.5}, "co": {"Y": 1.0, "X": 1.0}, "handle_type": 0, "interpolation": 0}]}, "file_id": "0TBMHZ9FCL", "image": "..\\..\\..\\..\\..\\.openshot_qt\\thumbnail\\0TBMHZ9FCL.png", "channel_mapping": {"Points": [{"co": {"Y": -1.0, "X": 1.0}, "interpolation": 2}]}, "position": 4.99875, "title": "2017-06-08_22-57-37.mp4", "display": 0, "start": 0, "layer": 0, "gravity": 4}, {"perspective_c2_x": {"Points": [{"co": {"Y": -1.0, "X": 1.0}, "interpolation": 2}]}, "waveform": false, "perspective_c1_x": {"Points": [{"co": {"Y": -1.0, "X": 1.0}, "interpolation": 2}]}, "perspective_c4_y": {"Points": [{"co": {"Y": -1.0, "X": 1.0}, "interpolation": 2}]}, "crop_height": {"Points": [{"co": {"Y": -1.0, "X": 1.0}, "interpolation": 2}]}, "id": "SR29AWO3C7", "end": 41.00643920898438, "shear_x": {"Points": [{"co": {"Y": 0.0, "X": 1.0}, "interpolation": 2}]}, "time": {"Points": [{"co": {"Y": 0.0, "X": 1.0}, "interpolation": 2}]}, "anchor": 0, "alpha": {"Points": [{"co": {"Y": 1.0, "X": 1.0}, "interpolation": 2}]}, "rotation": {"Points": [{"co": {"Y": 0.0, "X": 1.0}, "interpolation": 2}]}, "scale_x": {"Points": [{"co": {"Y": 1.0, "X": 1.0}, "interpolation": 2}]}, "has_audio": {"Points": [{"co": {"Y": -1.0, "X": 1.0}, "interpolation": 2}]}, "crop_y": {"Points": [{"co": {"Y": 0.0, "X": 1.0}, "interpolation": 2}]}, "location_y": {"Points": [{"co": {"Y": 0.0, "X": 1.0}, "interpolation": 2}]}, "has_video": {"Points": [{"co": {"Y": -1.0, "X": 1.0}, "interpolation": 2}]}, "channel_filter": {"Points": [{"co": {"Y": -1.0, "X": 1.0}, "interpolation": 2}]}, "duration": 41.00643920898438, "scale_y": {"Points": [{"co": {"Y": 1.0, "X": 1.0}, "interpolation": 2}]}, "crop_x": {"Points": [{"co": {"Y": 0.0, "X": 1.0}, "interpolation": 2}]}, "effects": [], "location_x": {"Points": [{"co": {"Y": 0.0, "X": 1.0}, "interpolation": 2}]}, "perspective_c1_y": {"Points": [{"co": {"Y": -1.0, "X": 1.0}, "interpolation": 2}]}, "perspective_c2_y": {"Points": [{"co": {"Y": -1.0, "X": 1.0}, "interpolation": 2}]}, "shear_y": {"Points": [{"co": {"Y": 0.0, "X": 1.0}, "interpolation": 2}]}, "perspective_c4_x": {"Points": [{"co": {"Y": -1.0, "X": 1.0}, "interpolation": 2}]}, "wave_color": {"blue": {"Points": [{"handle_right": {"Y": 0.0, "X": 0.5}, "handle_left": {"Y": 1.0, "X": 0.5}, "co": {"Y": 255.0, "X": 1.0}, "handle_type": 0, "interpolation": 0}]}, "alpha": {"Points": [{"handle_right": {"Y": 0.0, "X": 0.5}, "handle_left": {"Y": 1.0, "X": 0.5}, "co": {"Y": 255.0, "X": 1.0}, "handle_type": 0, "interpolation": 0}]}, "green": {"Points": [{"handle_right": {"Y": 0.0, "X": 0.5}, "handle_left": {"Y": 1.0, "X": 0.5}, "co": {"Y": 123.0, "X": 1.0}, "handle_type": 0, "interpolation": 0}]}, "red": {"Points": [{"handle_right": {"Y": 0.0, "X": 0.5}, "handle_left": {"Y": 1.0, "X": 0.5}, "co": {"Y": 0.0, "X": 1.0}, "handle_type": 0, "interpolation": 0}]}}, "scale": 1, "crop_width": {"Points": [{"co": {"Y": -1.0, "X": 1.0}, "interpolation": 2}]}, "reader": {"fps": {"den": 1001, "num": 60000}, "sample_rate": 44100, "path": "..\\2017-06-08_22-59-00.mp4", "acodec": "aac", "width": 1920, "audio_timebase": {"den": 44100, "num": 1}, "channels": 2, "video_length": "2459", "file_size": "13681128", "audio_stream_index": 1, "type": "FFmpegReader", "video_timebase": {"den": 60000, "num": 1}, "channel_layout": 3, "audio_bit_rate": 160069, "video_bit_rate": 2667861, "has_audio": true, "pixel_ratio": {"den": 1, "num": 1}, "interlaced_frame": false, "top_field_first": true, "has_single_image": false, "has_video": true, "duration": 41.00643920898438, "display_ratio": {"den": 9, "num": 16}, "height": 1080, "video_stream_index": 0, "pixel_format": 0, "vcodec": "h264"}, "perspective_c3_x": {"Points": [{"co": {"Y": -1.0, "X": 1.0}, "interpolation": 2}]}, "perspective_c3_y": {"Points": [{"co": {"Y": -1.0, "X": 1.0}, "interpolation": 2}]}, "volume": {"Points": [{"co": {"Y": 1.0, "X": 1.0}, "interpolation": 2}]}, "file_id": "4H1E7NYCAY", "image": "..\\..\\..\\..\\..\\.openshot_qt\\thumbnail\\4H1E7NYCAY.png", "channel_mapping": {"Points": [{"co": {"Y": -1.0, "X": 1.0}, "interpolation": 2}]}, "position": 40.385960845947274, "title": "2017-06-08_22-59-00.mp4", "display": 0, "start": 0, "layer": 0, "gravity": 4}, {"perspective_c2_x": {"Points": [{"co": {"Y": -1.0, "X": 1.0}, "interpolation": 2}]}, "waveform": false, "perspective_c1_x": {"Points": [{"co": {"Y": -1.0, "X": 1.0}, "interpolation": 2}]}, "perspective_c4_y": {"Points": [{"co": {"Y": -1.0, "X": 1.0}, "interpolation": 2}]}, "crop_height": {"Points": [{"co": {"Y": -1.0, "X": 1.0}, "interpolation": 2}]}, "id": "4NTS1QPTBB", "end": 64.22639465332031, "shear_x": {"Points": [{"co": {"Y": 0.0, "X": 1.0}, "interpolation": 2}]}, "time": {"Points": [{"co": {"Y": 0.0, "X": 1.0}, "interpolation": 2}]}, "anchor": 0, "alpha": {"Points": [{"co": {"Y": 1.0, "X": 1.0}, "interpolation": 2}]}, "rotation": {"Points": [{"co": {"Y": 0.0, "X": 1.0}, "interpolation": 2}]}, "scale_x": {"Points": [{"co": {"Y": 1.0, "X": 1.0}, "interpolation": 2}]}, "has_audio": {"Points": [{"co": {"Y": -1.0, "X": 1.0}, "interpolation": 2}]}, "crop_y": {"Points": [{"co": {"Y": 0.0, "X": 1.0}, "interpolation": 2}]}, "location_y": {"Points": [{"co": {"Y": 0.0, "X": 1.0}, "interpolation": 2}]}, "has_video": {"Points": [{"co": {"Y": -1.0, "X": 1.0}, "interpolation": 2}]}, "channel_filter": {"Points": [{"co": {"Y": -1.0, "X": 1.0}, "interpolation": 2}]}, "duration": 64.22639465332031, "scale_y": {"Points": [{"co": {"Y": 1.0, "X": 1.0}, "interpolation": 2}]}, "crop_x": {"Points": [{"co": {"Y": 0.0, "X": 1.0}, "interpolation": 2}]}, "effects": [], "location_x": {"Points": [{"co": {"Y": 0.0, "X": 1.0}, "interpolation": 2}]}, "perspective_c1_y": {"Points": [{"co": {"Y": -1.0, "X": 1.0}, "interpolation": 2}]}, "perspective_c2_y": {"Points": [{"co": {"Y": -1.0, "X": 1.0}, "interpolation": 2}]}, "shear_y": {"Points": [{"co": {"Y": 0.0, "X": 1.0}, "interpolation": 2}]}, "perspective_c4_x": {"Points": [{"co": {"Y": -1.0, "X": 1.0}, "interpolation": 2}]}, "wave_color": {"blue": {"Points": [{"handle_right": {"Y": 0.0, "X": 0.5}, "handle_left": {"Y": 1.0, "X": 0.5}, "co": {"Y": 255.0, "X": 1.0}, "handle_type": 0, "interpolation": 0}]}, "alpha": {"Points": [{"handle_right": {"Y": 0.0, "X": 0.5}, "handle_left": {"Y": 1.0, "X": 0.5}, "co": {"Y": 255.0, "X": 1.0}, "handle_type": 0, "interpolation": 0}]}, "green": {"Points": [{"handle_right": {"Y": 0.0, "X": 0.5}, "handle_left": {"Y": 1.0, "X": 0.5}, "co": {"Y": 123.0, "X": 1.0}, "handle_type": 0, "interpolation": 0}]}, "red": {"Points": [{"handle_right": {"Y": 0.0, "X": 0.5}, "handle_left": {"Y": 1.0, "X": 0.5}, "co": {"Y": 0.0, "X": 1.0}, "handle_type": 0, "interpolation": 0}]}}, "scale": 1, "crop_width": {"Points": [{"co": {"Y": -1.0, "X": 1.0}, "interpolation": 2}]}, "reader": {"fps": {"den": 1001, "num": 60000}, "sample_rate": 44100, "path": "..\\2017-06-08_23-02-22.mp4", "acodec": "aac", "width": 1920, "audio_timebase": {"den": 44100, "num": 1}, "channels": 2, "video_length": "3851", "file_size": "21441942", "audio_stream_index": 1, "type": "FFmpegReader", "video_timebase": {"den": 60000, "num": 1}, "channel_layout": 3, "audio_bit_rate": 160044, "video_bit_rate": 2669896, "has_audio": true, "pixel_ratio": {"den": 1, "num": 1}, "interlaced_frame": false, "top_field_first": true, "has_single_image": false, "has_video": true, "duration": 64.22639465332031, "display_ratio": {"den": 9, "num": 16}, "height": 1080, "video_stream_index": 0, "pixel_format": 0, "vcodec": "h264"}, "perspective_c3_x": {"Points": [{"co": {"Y": -1.0, "X": 1.0}, "interpolation": 2}]}, "perspective_c3_y": {"Points": [{"co": {"Y": -1.0, "X": 1.0}, "interpolation": 2}]}, "volume": {"Points": [{"co": {"Y": 1.0, "X": 1.0}, "interpolation": 2}]}, "file_id": "X3S300HJ2P", "image": "..\\..\\..\\..\\..\\.openshot_qt\\thumbnail\\X3S300HJ2P.png", "channel_mapping": {"Points": [{"co": {"Y": -1.0, "X": 1.0}, "interpolation": 2}]}, "position": 81.39240005493166, "title": "2017-06-08_23-02-22.mp4", "display": 0, "start": 0, "layer": 0, "gravity": 4}, {"perspective_c2_x": {"Points": [{"co": {"Y": -1.0, "X": 1.0}, "interpolation": 2}]}, "waveform": false, "perspective_c1_x": {"Points": [{"co": {"Y": -1.0, "X": 1.0}, "interpolation": 2}]}, "perspective_c4_y": {"Points": [{"co": {"Y": -1.0, "X": 1.0}, "interpolation": 2}]}, "crop_height": {"Points": [{"co": {"Y": -1.0, "X": 1.0}, "interpolation": 2}]}, "id": "2KV2FYWA9G", "end": 44.81451416015625, "shear_x": {"Points": [{"co": {"Y": 0.0, "X": 1.0}, "interpolation": 2}]}, "time": {"Points": [{"co": {"Y": 0.0, "X": 1.0}, "interpolation": 2}]}, "anchor": 0, "alpha": {"Points": [{"co": {"Y": 1.0, "X": 1.0}, "interpolation": 2}]}, "rotation": {"Points": [{"co": {"Y": 0.0, "X": 1.0}, "interpolation": 2}]}, "scale_x": {"Points": [{"co": {"Y": 1.0, "X": 1.0}, "interpolation": 2}]}, "has_audio": {"Points": [{"co": {"Y": -1.0, "X": 1.0}, "interpolation": 2}]}, "crop_y": {"Points": [{"co": {"Y": 0.0, "X": 1.0}, "interpolation": 2}]}, "location_y": {"Points": [{"co": {"Y": 0.0, "X": 1.0}, "interpolation": 2}]}, "has_video": {"Points": [{"co": {"Y": -1.0, "X": 1.0}, "interpolation": 2}]}, "channel_filter": {"Points": [{"co": {"Y": -1.0, "X": 1.0}, "interpolation": 2}]}, "duration": 44.81451416015625, "scale_y": {"Points": [{"co": {"Y": 1.0, "X": 1.0}, "interpolation": 2}]}, "crop_x": {"Points": [{"co": {"Y": 0.0, "X": 1.0}, "interpolation": 2}]}, "effects": [], "location_x": {"Points": [{"co": {"Y": 0.0, "X": 1.0}, "interpolation": 2}]}, "perspective_c1_y": {"Points": [{"co": {"Y": -1.0, "X": 1.0}, "interpolation": 2}]}, "perspective_c2_y": {"Points": [{"co": {"Y": -1.0, "X": 1.0}, "interpolation": 2}]}, "shear_y": {"Points": [{"co": {"Y": 0.0, "X": 1.0}, "interpolation": 2}]}, "perspective_c4_x": {"Points": [{"co": {"Y": -1.0, "X": 1.0}, "interpolation": 2}]}, "wave_color": {"blue": {"Points": [{"handle_right": {"Y": 0.0, "X": 0.5}, "handle_left": {"Y": 1.0, "X": 0.5}, "co": {"Y": 255.0, "X": 1.0}, "handle_type": 0, "interpolation": 0}]}, "alpha": {"Points": [{"handle_right": {"Y": 0.0, "X": 0.5}, "handle_left": {"Y": 1.0, "X": 0.5}, "co": {"Y": 255.0, "X": 1.0}, "handle_type": 0, "interpolation": 0}]}, "green": {"Points": [{"handle_right": {"Y": 0.0, "X": 0.5}, "handle_left": {"Y": 1.0, "X": 0.5}, "co": {"Y": 123.0, "X": 1.0}, "handle_type": 0, "interpolation": 0}]}, "red": {"Points": [{"handle_right": {"Y": 0.0, "X": 0.5}, "handle_left": {"Y": 1.0, "X": 0.5}, "co": {"Y": 0.0, "X": 1.0}, "handle_type": 0, "interpolation": 0}]}}, "scale": 1, "crop_width": {"Points": [{"co": {"Y": -1.0, "X": 1.0}, "interpolation": 2}]}, "reader": {"fps": {"den": 1001, "num": 60000}, "sample_rate": 44100, "path": "..\\2017-06-08_23-04-13.mp4", "acodec": "aac", "width": 1920, "audio_timebase": {"den": 44100, "num": 1}, "channels": 2, "video_length": "2687", "file_size": "14952130", "audio_stream_index": 1, "type": "FFmpegReader", "video_timebase": {"den": 60000, "num": 1}, "channel_layout": 3, "audio_bit_rate": 160063, "video_bit_rate": 2668295, "has_audio": true, "pixel_ratio": {"den": 1, "num": 1}, "interlaced_frame": false, "top_field_first": true, "has_single_image": false, "has_video": true, "duration": 44.81451416015625, "display_ratio": {"den": 9, "num": 16}, "height": 1080, "video_stream_index": 0, "pixel_format": 0, "vcodec": "h264"}, "perspective_c3_x": {"Points": [{"co": {"Y": -1.0, "X": 1.0}, "interpolation": 2}]}, "perspective_c3_y": {"Points": [{"co": {"Y": -1.0, "X": 1.0}, "interpolation": 2}]}, "volume": {"Points": [{"co": {"Y": 1.0, "X": 1.0}, "interpolation": 2}]}, "file_id": "O7OS6ESWMU", "image": "..\\..\\..\\..\\..\\.openshot_qt\\thumbnail\\O7OS6ESWMU.png", "channel_mapping": {"Points": [{"co": {"Y": -1.0, "X": 1.0}, "interpolation": 2}]}, "position": 145.61879470825195, "title": "2017-06-08_23-04-13.mp4", "display": 0, "start": 0, "layer": 0, "gravity": 4}, {"perspective_c2_x": {"Points": [{"co": {"Y": -1.0, "X": 1.0}, "interpolation": 2}]}, "waveform": false, "perspective_c1_x": {"Points": [{"co": {"Y": -1.0, "X": 1.0}, "interpolation": 2}]}, "perspective_c4_y": {"Points": [{"co": {"Y": -1.0, "X": 1.0}, "interpolation": 2}]}, "crop_height": {"Points": [{"co": {"Y": -1.0, "X": 1.0}, "interpolation": 2}]}, "id": "DRSALX44XE", "end": 45.6039924621582, "shear_x": {"Points": [{"co": {"Y": 0.0, "X": 1.0}, "interpolation": 2}]}, "time": {"Points": [{"co": {"Y": 0.0, "X": 1.0}, "interpolation": 2}]}, "anchor": 0, "alpha": {"Points": [{"co": {"Y": 1.0, "X": 1.0}, "interpolation": 2}]}, "rotation": {"Points": [{"co": {"Y": 0.0, "X": 1.0}, "interpolation": 2}]}, "scale_x": {"Points": [{"co": {"Y": 1.0, "X": 1.0}, "interpolation": 2}]}, "has_audio": {"Points": [{"co": {"Y": -1.0, "X": 1.0}, "interpolation": 2}]}, "crop_y": {"Points": [{"co": {"Y": 0.0, "X": 1.0}, "interpolation": 2}]}, "location_y": {"Points": [{"co": {"Y": 0.0, "X": 1.0}, "interpolation": 2}]}, "has_video": {"Points": [{"co": {"Y": -1.0, "X": 1.0}, "interpolation": 2}]}, "channel_filter": {"Points": [{"co": {"Y": -1.0, "X": 1.0}, "interpolation": 2}]}, "duration": 45.6039924621582, "scale_y": {"Points": [{"co": {"Y": 1.0, "X": 1.0}, "interpolation": 2}]}, "crop_x": {"Points": [{"co": {"Y": 0.0, "X": 1.0}, "interpolation": 2}]}, "effects": [], "location_x": {"Points": [{"co": {"Y": 0.0, "X": 1.0}, "interpolation": 2}]}, "perspective_c1_y": {"Points": [{"co": {"Y": -1.0, "X": 1.0}, "interpolation": 2}]}, "perspective_c2_y": {"Points": [{"co": {"Y": -1.0, "X": 1.0}, "interpolation": 2}]}, "shear_y": {"Points": [{"co": {"Y": 0.0, "X": 1.0}, "interpolation": 2}]}, "perspective_c4_x": {"Points": [{"co": {"Y": -1.0, "X": 1.0}, "interpolation": 2}]}, "wave_color": {"blue": {"Points": [{"handle_right": {"Y": 0.0, "X": 0.5}, "handle_left": {"Y": 1.0, "X": 0.5}, "co": {"Y": 255.0, "X": 1.0}, "handle_type": 0, "interpolation": 0}]}, "alpha": {"Points": [{"handle_right": {"Y": 0.0, "X": 0.5}, "handle_left": {"Y": 1.0, "X": 0.5}, "co": {"Y": 255.0, "X": 1.0}, "handle_type": 0, "interpolation": 0}]}, "green": {"Points": [{"handle_right": {"Y": 0.0, "X": 0.5}, "handle_left": {"Y": 1.0, "X": 0.5}, "co": {"Y": 123.0, "X": 1.0}, "handle_type": 0, "interpolation": 0}]}, "red": {"Points": [{"handle_right": {"Y": 0.0, "X": 0.5}, "handle_left": {"Y": 1.0, "X": 0.5}, "co": {"Y": 0.0, "X": 1.0}, "handle_type": 0, "interpolation": 0}]}}, "scale": 1, "crop_width": {"Points": [{"co": {"Y": -1.0, "X": 1.0}, "interpolation": 2}]}, "reader": {"fps": {"den": 1001, "num": 60000}, "sample_rate": 44100, "path": "..\\2017-06-08_23-04-59.mp4", "acodec": "aac", "width": 1920, "audio_timebase": {"den": 44100, "num": 1}, "channels": 2, "video_length": "2735", "file_size": "15219644", "audio_stream_index": 1, "type": "FFmpegReader", "video_timebase": {"den": 60000, "num": 1}, "channel_layout": 3, "audio_bit_rate": 160062, "video_bit_rate": 2668415, "has_audio": true, "pixel_ratio": {"den": 1, "num": 1}, "interlaced_frame": false, "top_field_first": true, "has_single_image": false, "has_video": true, "duration": 45.6039924621582, "display_ratio": {"den": 9, "num": 16}, "height": 1080, "video_stream_index": 0, "pixel_format": 0, "vcodec": "h264"}, "perspective_c3_x": {"Points": [{"co": {"Y": -1.0, "X": 1.0}, "interpolation": 2}]}, "perspective_c3_y": {"Points": [{"co": {"Y": -1.0, "X": 1.0}, "interpolation": 2}]}, "volume": {"Points": [{"co": {"Y": 1.0, "X": 1.0}, "interpolation": 2}]}, "file_id": "8KFD00MZIJ", "image": "..\\..\\..\\..\\..\\.openshot_qt\\thumbnail\\8KFD00MZIJ.png", "channel_mapping": {"Points": [{"co": {"Y": -1.0, "X": 1.0}, "interpolation": 2}]}, "position": 190.4333088684082, "title": "2017-06-08_23-04-59.mp4", "display": 0, "start": 0, "layer": 0, "gravity": 4}, {"perspective_c2_x": {"Points": [{"co": {"Y": -1.0, "X": 1.0}, "interpolation": 2}]}, "waveform": false, "perspective_c1_x": {"Points": [{"co": {"Y": -1.0, "X": 1.0}, "interpolation": 2}]}, "perspective_c4_y": {"Points": [{"co": {"Y": -1.0, "X": 1.0}, "interpolation": 2}]}, "crop_height": {"Points": [{"co": {"Y": -1.0, "X": 1.0}, "interpolation": 2}]}, "id": "B6GLMNG4EK", "end": 45.53433227539062, "shear_x": {"Points": [{"co": {"Y": 0.0, "X": 1.0}, "interpolation": 2}]}, "time": {"Points": [{"co": {"Y": 0.0, "X": 1.0}, "interpolation": 2}]}, "anchor": 0, "alpha": {"Points": [{"co": {"Y": 1.0, "X": 1.0}, "interpolation": 2}]}, "rotation": {"Points": [{"co": {"Y": 0.0, "X": 1.0}, "interpolation": 2}]}, "scale_x": {"Points": [{"co": {"Y": 1.0, "X": 1.0}, "interpolation": 2}]}, "has_audio": {"Points": [{"co": {"Y": -1.0, "X": 1.0}, "interpolation": 2}]}, "crop_y": {"Points": [{"co": {"Y": 0.0, "X": 1.0}, "interpolation": 2}]}, "location_y": {"Points": [{"co": {"Y": 0.0, "X": 1.0}, "interpolation": 2}]}, "has_video": {"Points": [{"co": {"Y": -1.0, "X": 1.0}, "interpolation": 2}]}, "channel_filter": {"Points": [{"co": {"Y": -1.0, "X": 1.0}, "interpolation": 2}]}, "duration": 45.53433227539062, "scale_y": {"Points": [{"co": {"Y": 1.0, "X": 1.0}, "interpolation": 2}]}, "crop_x": {"Points": [{"co": {"Y": 0.0, "X": 1.0}, "interpolation": 2}]}, "effects": [], "location_x": {"Points": [{"co": {"Y": 0.0, "X": 1.0}, "interpolation": 2}]}, "perspective_c1_y": {"Points": [{"co": {"Y": -1.0, "X": 1.0}, "interpolation": 2}]}, "perspective_c2_y": {"Points": [{"co": {"Y": -1.0, "X": 1.0}, "interpolation": 2}]}, "shear_y": {"Points": [{"co": {"Y": 0.0, "X": 1.0}, "interpolation": 2}]}, "perspective_c4_x": {"Points": [{"co": {"Y": -1.0, "X": 1.0}, "interpolation": 2}]}, "wave_color": {"blue": {"Points": [{"handle_right": {"Y": 0.0, "X": 0.5}, "handle_left": {"Y": 1.0, "X": 0.5}, "co": {"Y": 255.0, "X": 1.0}, "handle_type": 0, "interpolation": 0}]}, "alpha": {"Points": [{"handle_right": {"Y": 0.0, "X": 0.5}, "handle_left": {"Y": 1.0, "X": 0.5}, "co": {"Y": 255.0, "X": 1.0}, "handle_type": 0, "interpolation": 0}]}, "green": {"Points": [{"handle_right": {"Y": 0.0, "X": 0.5}, "handle_left": {"Y": 1.0, "X": 0.5}, "co": {"Y": 123.0, "X": 1.0}, "handle_type": 0, "interpolation": 0}]}, "red": {"Points": [{"handle_right": {"Y": 0.0, "X": 0.5}, "handle_left": {"Y": 1.0, "X": 0.5}, "co": {"Y": 0.0, "X": 1.0}, "handle_type": 0, "interpolation": 0}]}}, "scale": 1, "crop_width": {"Points": [{"co": {"Y": -1.0, "X": 1.0}, "interpolation": 2}]}, "reader": {"fps": {"den": 1001, "num": 60000}, "sample_rate": 44100, "path": "..\\2017-06-08_23-09-45.mp4", "acodec": "aac", "width": 1920, "audio_timebase": {"den": 44100, "num": 1}, "channels": 2, "video_length": "2730", "file_size": "15192151", "audio_stream_index": 1, "type": "FFmpegReader", "video_timebase": {"den": 60000, "num": 1}, "channel_layout": 3, "audio_bit_rate": 160062, "video_bit_rate": 2668449, "has_audio": true, "pixel_ratio": {"den": 1, "num": 1}, "interlaced_frame": false, "top_field_first": true, "has_single_image": false, "has_video": true, "duration": 45.53433227539062, "display_ratio": {"den": 9, "num": 16}, "height": 1080, "video_stream_index": 0, "pixel_format": 0, "vcodec": "h264"}, "perspective_c3_x": {"Points": [{"co": {"Y": -1.0, "X": 1.0}, "interpolation": 2}]}, "perspective_c3_y": {"Points": [{"co": {"Y": -1.0, "X": 1.0}, "interpolation": 2}]}, "volume": {"Points": [{"co": {"Y": 1.0, "X": 1.0}, "interpolation": 2}]}, "file_id": "VB8P9P09V8", "image": "..\\..\\..\\..\\..\\.openshot_qt\\thumbnail\\VB8P9P09V8.png", "channel_mapping": {"Points": [{"co": {"Y": -1.0, "X": 1.0}, "interpolation": 2}]}, "position": 236.0373013305664, "title": "2017-06-08_23-09-45.mp4", "display": 0, "start": 0, "layer": 0, "gravity": 4}, {"perspective_c2_x": {"Points": [{"co": {"Y": -1.0, "X": 1.0}, "interpolation": 2}]}, "waveform": false, "perspective_c1_x": {"Points": [{"co": {"Y": -1.0, "X": 1.0}, "interpolation": 2}]}, "perspective_c4_y": {"Points": [{"co": {"Y": -1.0, "X": 1.0}, "interpolation": 2}]}, "crop_height": {"Points": [{"co": {"Y": -1.0, "X": 1.0}, "interpolation": 2}]}, "id": "2FUOH6FEQF", "end": 26.12244987487793, "shear_x": {"Points": [{"co": {"Y": 0.0, "X": 1.0}, "interpolation": 2}]}, "time": {"Points": [{"co": {"Y": 0.0, "X": 1.0}, "interpolation": 2}]}, "anchor": 0, "alpha": {"Points": [{"co": {"Y": 1.0, "X": 1.0}, "interpolation": 2}]}, "rotation": {"Points": [{"co": {"Y": 0.0, "X": 1.0}, "interpolation": 2}]}, "scale_x": {"Points": [{"co": {"Y": 1.0, "X": 1.0}, "interpolation": 2}]}, "has_audio": {"Points": [{"co": {"Y": -1.0, "X": 1.0}, "interpolation": 2}]}, "crop_y": {"Points": [{"co": {"Y": 0.0, "X": 1.0}, "interpolation": 2}]}, "location_y": {"Points": [{"co": {"Y": 0.0, "X": 1.0}, "interpolation": 2}]}, "has_video": {"Points": [{"co": {"Y": -1.0, "X": 1.0}, "interpolation": 2}]}, "channel_filter": {"Points": [{"co": {"Y": -1.0, "X": 1.0}, "interpolation": 2}]}, "duration": 26.12244987487793, "scale_y": {"Points": [{"co": {"Y": 1.0, "X": 1.0}, "interpolation": 2}]}, "crop_x": {"Points": [{"co": {"Y": 0.0, "X": 1.0}, "interpolation": 2}]}, "effects": [], "location_x": {"Points": [{"co": {"Y": 0.0, "X": 1.0}, "interpolation": 2}]}, "perspective_c1_y": {"Points": [{"co": {"Y": -1.0, "X": 1.0}, "interpolation": 2}]}, "perspective_c2_y": {"Points": [{"co": {"Y": -1.0, "X": 1.0}, "interpolation": 2}]}, "shear_y": {"Points": [{"co": {"Y": 0.0, "X": 1.0}, "interpolation": 2}]}, "perspective_c4_x": {"Points": [{"co": {"Y": -1.0, "X": 1.0}, "interpolation": 2}]}, "wave_color": {"blue": {"Points": [{"handle_right": {"Y": 0.0, "X": 0.5}, "handle_left": {"Y": 1.0, "X": 0.5}, "co": {"Y": 255.0, "X": 1.0}, "handle_type": 0, "interpolation": 0}]}, "alpha": {"Points": [{"handle_right": {"Y": 0.0, "X": 0.5}, "handle_left": {"Y": 1.0, "X": 0.5}, "co": {"Y": 255.0, "X": 1.0}, "handle_type": 0, "interpolation": 0}]}, "green": {"Points": [{"handle_right": {"Y": 0.0, "X": 0.5}, "handle_left": {"Y": 1.0, "X": 0.5}, "co": {"Y": 123.0, "X": 1.0}, "handle_type": 0, "interpolation": 0}]}, "red": {"Points": [{"handle_right": {"Y": 0.0, "X": 0.5}, "handle_left": {"Y": 1.0, "X": 0.5}, "co": {"Y": 0.0, "X": 1.0}, "handle_type": 0, "interpolation": 0}]}}, "scale": 1, "crop_width": {"Points": [{"co": {"Y": -1.0, "X": 1.0}, "interpolation": 2}]}, "reader": {"fps": {"den": 1001, "num": 60000}, "sample_rate": 44100, "path": "..\\2017-06-08_23-07-36.mp4", "acodec": "aac", "width": 1920, "audio_timebase": {"den": 44100, "num": 1}, "channels": 2, "video_length": "1567", "file_size": "8707675", "audio_stream_index": 1, "type": "FFmpegReader", "video_timebase": {"den": 60000, "num": 1}, "channel_layout": 3, "audio_bit_rate": 160109, "video_bit_rate": 2664629, "has_audio": true, "pixel_ratio": {"den": 1, "num": 1}, "interlaced_frame": false, "top_field_first": true, "has_single_image": false, "has_video": true, "duration": 26.12244987487793, "display_ratio": {"den": 9, "num": 16}, "height": 1080, "video_stream_index": 0, "pixel_format": 0, "vcodec": "h264"}, "perspective_c3_x": {"Points": [{"co": {"Y": -1.0, "X": 1.0}, "interpolation": 2}]}, "perspective_c3_y": {"Points": [{"co": {"Y": -1.0, "X": 1.0}, "interpolation": 2}]}, "volume": {"Points": [{"co": {"Y": 1.0, "X": 1.0}, "interpolation": 2}]}, "file_id": "84EQYJQ3IM", "image": "..\\..\\..\\..\\..\\.openshot_qt\\thumbnail\\84EQYJQ3IM.png", "channel_mapping": {"Points": [{"co": {"Y": -1.0, "X": 1.0}, "interpolation": 2}]}, "position": 281.57163360595706, "title": "2017-06-08_23-07-36.mp4", "display": 0, "start": 0, "layer": 0, "gravity": 4}, {"perspective_c2_x": {"Points": [{"co": {"Y": -1.0, "X": 1.0}, "interpolation": 2}]}, "waveform": false, "perspective_c1_x": {"Points": [{"co": {"Y": -1.0, "X": 1.0}, "interpolation": 2}]}, "perspective_c4_y": {"Points": [{"co": {"Y": -1.0, "X": 1.0}, "interpolation": 2}]}, "crop_height": {"Points": [{"co": {"Y": -1.0, "X": 1.0}, "interpolation": 2}]}, "id": "JTKYC7MUNJ", "end": 238.7069396972656, "shear_x": {"Points": [{"co": {"Y": 0.0, "X": 1.0}, "interpolation": 2}]}, "time": {"Points": [{"co": {"Y": 0.0, "X": 1.0}, "interpolation": 2}]}, "anchor": 0, "alpha": {"Points": [{"co": {"Y": 1.0, "X": 1.0}, "interpolation": 2}]}, "rotation": {"Points": [{"co": {"Y": 0.0, "X": 1.0}, "interpolation": 2}]}, "scale_x": {"Points": [{"co": {"Y": 1.0, "X": 1.0}, "interpolation": 2}]}, "has_audio": {"Points": [{"co": {"Y": -1.0, "X": 1.0}, "interpolation": 2}]}, "crop_y": {"Points": [{"co": {"Y": 0.0, "X": 1.0}, "interpolation": 2}]}, "location_y": {"Points": [{"co": {"Y": 0.0, "X": 1.0}, "interpolation": 2}]}, "has_video": {"Points": [{"co": {"Y": -1.0, "X": 1.0}, "interpolation": 2}]}, "channel_filter": {"Points": [{"co": {"Y": -1.0, "X": 1.0}, "interpolation": 2}]}, "duration": 238.7069396972656, "scale_y": {"Points": [{"co": {"Y": 1.0, "X": 1.0}, "interpolation": 2}]}, "crop_x": {"Points": [{"co": {"Y": 0.0, "X": 1.0}, "interpolation": 2}]}, "effects": [], "location_x": {"Points": [{"co": {"Y": 0.0, "X": 1.0}, "interpolation": 2}]}, "perspective_c1_y": {"Points": [{"co": {"Y": -1.0, "X": 1.0}, "interpolation": 2}]}, "perspective_c2_y": {"Points": [{"co": {"Y": -1.0, "X": 1.0}, "interpolation": 2}]}, "shear_y": {"Points": [{"co": {"Y": 0.0, "X": 1.0}, "interpolation": 2}]}, "perspective_c4_x": {"Points": [{"co": {"Y": -1.0, "X": 1.0}, "interpolation": 2}]}, "wave_color": {"blue": {"Points": [{"handle_right": {"Y": 0.0, "X": 0.5}, "handle_left": {"Y": 1.0, "X": 0.5}, "co": {"Y": 255.0, "X": 1.0}, "handle_type": 0, "interpolation": 0}]}, "alpha": {"Points": [{"handle_right": {"Y": 0.0, "X": 0.5}, "handle_left": {"Y": 1.0, "X": 0.5}, "co": {"Y": 255.0, "X": 1.0}, "handle_type": 0, "interpolation": 0}]}, "green": {"Points": [{"handle_right": {"Y": 0.0, "X": 0.5}, "handle_left": {"Y": 1.0, "X": 0.5}, "co": {"Y": 123.0, "X": 1.0}, "handle_type": 0, "interpolation": 0}]}, "red": {"Points": [{"handle_right": {"Y": 0.0, "X": 0.5}, "handle_left": {"Y": 1.0, "X": 0.5}, "co": {"Y": 0.0, "X": 1.0}, "handle_type": 0, "interpolation": 0}]}}, "scale": 1, "crop_width": {"Points": [{"co": {"Y": -1.0, "X": 1.0}, "interpolation": 2}]}, "reader": {"fps": {"den": 1, "num": 24}, "sample_rate": 44100, "path": "..\\..\\..\\..\\..\\Downloads\\Music\\Classical-Reverie.mp3", "acodec": "mp3", "width": 720, "audio_timebase": {"den": 14112000, "num": 1}, "channels": 2, "video_length": "5728", "file_size": "9549952", "audio_stream_index": 0, "type": "FFmpegReader", "video_timebase": {"den": 24, "num": 1}, "channel_layout": 3, "audio_bit_rate": 320000, "video_bit_rate": 0, "has_audio": true, "pixel_ratio": {"den": 1, "num": 1}, "interlaced_frame": false, "top_field_first": true, "has_single_image": false, "has_video": false, "duration": 238.7069396972656, "display_ratio": {"den": 1, "num": 1}, "height": 480, "video_stream_index": -1, "pixel_format": -1, "vcodec": ""}, "perspective_c3_x": {"Points": [{"co": {"Y": -1.0, "X": 1.0}, "interpolation": 2}]}, "perspective_c3_y": {"Points": [{"co": {"Y": -1.0, "X": 1.0}, "interpolation": 2}]}, "volume": {"Points": [{"co": {"Y": 1.0, "X": 1.0}, "interpolation": 2}, {"handle_right": {"Y": 0.0, "X": 0.5}, "handle_left": {"Y": 1.0, "X": 0.5}, "co": {"Y": 0.1000000014901161, "X": 1.0}, "handle_type": 0, "interpolation": 0}, {"co": {"Y": 0.040983606557377046, "X": 1494}, "interpolation": 1}, {"co": {"Y": 0.03278688524590164, "X": 484}, "interpolation": 1}]}, "file_id": "XKBNY5KSBX", "image": "..\\..\\..\\..\\..\\..\\..\\Program Files\\OpenShot Video Editor\\images\\AudioThumbnail.png", "channel_mapping": {"Points": [{"co": {"Y": -1.0, "X": 1.0}, "interpolation": 2}]}, "position": 0, "title": "Classical-Reverie.mp3", "display": 0, "start": 0, "layer": 1, "gravity": 4}, {"perspective_c2_x": {"Points": [{"co": {"Y": -1.0, "X": 1.0}, "interpolation": 2}]}, "waveform": false, "perspective_c1_x": {"Points": [{"co": {"Y": -1.0, "X": 1.0}, "interpolation": 2}]}, "perspective_c4_y": {"Points": [{"co": {"Y": -1.0, "X": 1.0}, "interpolation": 2}]}, "crop_height": {"Points": [{"co": {"Y": -1.0, "X": 1.0}, "interpolation": 2}]}, "id": "S6YZTYBEYE", "end": 68.1369396972656, "shear_x": {"Points": [{"co": {"Y": 0.0, "X": 1.0}, "interpolation": 2}]}, "time": {"Points": [{"co": {"Y": 0.0, "X": 1.0}, "interpolation": 2}]}, "anchor": 0, "alpha": {"Points": [{"co": {"Y": 1.0, "X": 1.0}, "interpolation": 2}]}, "rotation": {"Points": [{"co": {"Y": 0.0, "X": 1.0}, "interpolation": 2}]}, "scale_x": {"Points": [{"co": {"Y": 1.0, "X": 1.0}, "interpolation": 2}]}, "has_audio": {"Points": [{"co": {"Y": -1.0, "X": 1.0}, "interpolation": 2}]}, "crop_y": {"Points": [{"co": {"Y": 0.0, "X": 1.0}, "interpolation": 2}]}, "location_y": {"Points": [{"co": {"Y": 0.0, "X": 1.0}, "interpolation": 2}]}, "has_video": {"Points": [{"co": {"Y": -1.0, "X": 1.0}, "interpolation": 2}]}, "channel_filter": {"Points": [{"co": {"Y": -1.0, "X": 1.0}, "interpolation": 2}]}, "duration": 238.7069396972656, "scale_y": {"Points": [{"co": {"Y": 1.0, "X": 1.0}, "interpolation": 2}]}, "crop_x": {"Points": [{"co": {"Y": 0.0, "X": 1.0}, "interpolation": 2}]}, "effects": [], "location_x": {"Points": [{"co": {"Y": 0.0, "X": 1.0}, "interpolation": 2}]}, "perspective_c1_y": {"Points": [{"co": {"Y": -1.0, "X": 1.0}, "interpolation": 2}]}, "perspective_c2_y": {"Points": [{"co": {"Y": -1.0, "X": 1.0}, "interpolation": 2}]}, "shear_y": {"Points": [{"co": {"Y": 0.0, "X": 1.0}, "interpolation": 2}]}, "perspective_c4_x": {"Points": [{"co": {"Y": -1.0, "X": 1.0}, "interpolation": 2}]}, "wave_color": {"blue": {"Points": [{"handle_right": {"Y": 0.0, "X": 0.5}, "handle_left": {"Y": 1.0, "X": 0.5}, "co": {"Y": 255.0, "X": 1.0}, "handle_type": 0, "interpolation": 0}]}, "alpha": {"Points": [{"handle_right": {"Y": 0.0, "X": 0.5}, "handle_left": {"Y": 1.0, "X": 0.5}, "co": {"Y": 255.0, "X": 1.0}, "handle_type": 0, "interpolation": 0}]}, "green": {"Points": [{"handle_right": {"Y": 0.0, "X": 0.5}, "handle_left": {"Y": 1.0, "X": 0.5}, "co": {"Y": 123.0, "X": 1.0}, "handle_type": 0, "interpolation": 0}]}, "red": {"Points": [{"handle_right": {"Y": 0.0, "X": 0.5}, "handle_left": {"Y": 1.0, "X": 0.5}, "co": {"Y": 0.0, "X": 1.0}, "handle_type": 0, "interpolation": 0}]}}, "scale": 1, "crop_width": {"Points": [{"co": {"Y": -1.0, "X": 1.0}, "interpolation": 2}]}, "reader": {"fps": {"den": 1, "num": 24}, "sample_rate": 44100, "path": "..\\..\\..\\..\\..\\Downloads\\Music\\Classical-Reverie.mp3", "acodec": "mp3", "width": 720, "audio_timebase": {"den": 14112000, "num": 1}, "channels": 2, "video_length": "5728", "file_size": "9549952", "audio_stream_index": 0, "type": "FFmpegReader", "video_timebase": {"den": 24, "num": 1}, "channel_layout": 3, "audio_bit_rate": 320000, "video_bit_rate": 0, "has_audio": true, "pixel_ratio": {"den": 1, "num": 1}, "interlaced_frame": false, "top_field_first": true, "has_single_image": false, "has_video": false, "duration": 238.7069396972656, "display_ratio": {"den": 1, "num": 1}, "height": 480, "video_stream_index": -1, "pixel_format": -1, "vcodec": ""}, "perspective_c3_x": {"Points": [{"co": {"Y": -1.0, "X": 1.0}, "interpolation": 2}]}, "perspective_c3_y": {"Points": [{"co": {"Y": -1.0, "X": 1.0}, "interpolation": 2}]}, "volume": {"Points": [{"co": {"Y": 0.03278688524590164, "X": 1.0}, "interpolation": 2}]}, "file_id": "XKBNY5KSBX", "image": "..\\..\\..\\..\\..\\..\\..\\Program Files\\OpenShot Video Editor\\images\\AudioThumbnail.png", "channel_mapping": {"Points": [{"co": {"Y": -1.0, "X": 1.0}, "interpolation": 2}]}, "position": 239.21437500000002, "title": "Classical-Reverie.mp3", "display": 0, "start": 0, "layer": 1, "gravity": 4}, {"perspective_c2_x": {"Points": [{"co": {"Y": -1.0, "X": 1.0}, "interpolation": 2}]}, "waveform": false, "perspective_c1_x": {"Points": [{"co": {"Y": -1.0, "X": 1.0}, "interpolation": 2}]}, "perspective_c4_y": {"Points": [{"co": {"Y": -1.0, "X": 1.0}, "interpolation": 2}]}, "crop_height": {"Points": [{"co": {"Y": -1.0, "X": 1.0}, "interpolation": 2}]}, "id": "AU4SAIDIBQ", "end": 10, "shear_x": {"Points": [{"co": {"Y": 0.0, "X": 1.0}, "interpolation": 2}]}, "time": {"Points": [{"co": {"Y": 0.0, "X": 1.0}, "interpolation": 2}]}, "anchor": 0, "alpha": {"Points": [{"co": {"Y": 1.0, "X": 1.0}, "interpolation": 2}]}, "rotation": {"Points": [{"co": {"Y": 0.0, "X": 1.0}, "interpolation": 2}]}, "scale_x": {"Points": [{"co": {"Y": 1.0, "X": 1.0}, "interpolation": 2}]}, "has_audio": {"Points": [{"co": {"Y": -1.0, "X": 1.0}, "interpolation": 2}]}, "crop_y": {"Points": [{"co": {"Y": 0.0, "X": 1.0}, "interpolation": 2}]}, "location_y": {"Points": [{"co": {"Y": 0.0, "X": 1.0}, "interpolation": 2}]}, "has_video": {"Points": [{"co": {"Y": -1.0, "X": 1.0}, "interpolation": 2}]}, "channel_filter": {"Points": [{"co": {"Y": -1.0, "X": 1.0}, "interpolation": 2}]}, "duration": 86400.0, "scale_y": {"Points": [{"co": {"Y": 1.0, "X": 1.0}, "interpolation": 2}]}, "crop_x": {"Points": [{"co": {"Y": 0.0, "X": 1.0}, "interpolation": 2}]}, "effects": [], "location_x": {"Points": [{"co": {"Y": 0.0, "X": 1.0}, "interpolation": 2}]}, "perspective_c1_y": {"Points": [{"co": {"Y": -1.0, "X": 1.0}, "interpolation": 2}]}, "perspective_c2_y": {"Points": [{"co": {"Y": -1.0, "X": 1.0}, "interpolation": 2}]}, "shear_y": {"Points": [{"co": {"Y": 0.0, "X": 1.0}, "interpolation": 2}]}, "perspective_c4_x": {"Points": [{"co": {"Y": -1.0, "X": 1.0}, "interpolation": 2}]}, "wave_color": {"blue": {"Points": [{"handle_right": {"Y": 0.0, "X": 0.5}, "handle_left": {"Y": 1.0, "X": 0.5}, "co": {"Y": 255.0, "X": 1.0}, "handle_type": 0, "interpolation": 0}]}, "alpha": {"Points": [{"handle_right": {"Y": 0.0, "X": 0.5}, "handle_left": {"Y": 1.0, "X": 0.5}, "co": {"Y": 255.0, "X": 1.0}, "handle_type": 0, "interpolation": 0}]}, "green": {"Points": [{"handle_right": {"Y": 0.0, "X": 0.5}, "handle_left": {"Y": 1.0, "X": 0.5}, "co": {"Y": 123.0, "X": 1.0}, "handle_type": 0, "interpolation": 0}]}, "red": {"Points": [{"handle_right": {"Y": 0.0, "X": 0.5}, "handle_left": {"Y": 1.0, "X": 0.5}, "co": {"Y": 0.0, "X": 1.0}, "handle_type": 0, "interpolation": 0}]}}, "scale": 1, "crop_width": {"Points": [{"co": {"Y": -1.0, "X": 1.0}, "interpolation": 2}]}, "reader": {"fps": {"den": 1, "num": 30}, "sample_rate": 0, "path": "introImage.png", "acodec": "", "width": 1920, "audio_timebase": {"den": 1, "num": 1}, "channels": 0, "video_length": "2592000", "file_size": "8294400", "audio_stream_index": -1, "type": "QtImageReader", "video_timebase": {"den": 30, "num": 1}, "channel_layout": 4, "audio_bit_rate": 0, "video_bit_rate": 0, "has_audio": false, "pixel_ratio": {"den": 1, "num": 1}, "interlaced_frame": false, "top_field_first": true, "has_single_image": true, "has_video": true, "duration": 86400.0, "display_ratio": {"den": 9, "num": 16}, "height": 1080, "video_stream_index": -1, "pixel_format": -1, "vcodec": ""}, "perspective_c3_x": {"Points": [{"co": {"Y": -1.0, "X": 1.0}, "interpolation": 2}]}, "perspective_c3_y": {"Points": [{"co": {"Y": -1.0, "X": 1.0}, "interpolation": 2}]}, "volume": {"Points": [{"co": {"Y": 1.0, "X": 1.0}, "interpolation": 2}]}, "file_id": "1NWQ9ZHCWA", "image": "..\\..\\..\\..\\..\\.openshot_qt\\thumbnail\\1NWQ9ZHCWA.png", "channel_mapping": {"Points": [{"co": {"Y": -1.0, "X": 1.0}, "interpolation": 2}]}, "position": 0, "title": "introImage.png", "display": 0, "start": 5.000000000000001, "layer": 0, "gravity": 4}]}